<mxfile host="app.diagrams.net" agent="Mozilla/5.0 (Macintosh; Intel Mac OS X 10_15_7) AppleWebKit/537.36 (KHTML, like Gecko) Chrome/138.0.0.0 Safari/537.36 Edg/138.0.0.0" version="28.0.9">
  <diagram name="第 1 页" id="wGMWOpGk1n0xadyC_bJa">
    <mxGraphModel dx="788" dy="595" grid="1" gridSize="10" guides="1" tooltips="1" connect="1" arrows="1" fold="1" page="1" pageScale="1" pageWidth="850" pageHeight="1100" math="0" shadow="0">
      <root>
        <mxCell id="0" />
        <mxCell id="1" parent="0" />
        <mxCell id="XYf41SD09D1qtcmD4VIL-4" style="edgeStyle=orthogonalEdgeStyle;rounded=0;orthogonalLoop=1;jettySize=auto;html=1;entryX=0;entryY=0.5;entryDx=0;entryDy=0;" edge="1" parent="1" source="XYf41SD09D1qtcmD4VIL-2" target="XYf41SD09D1qtcmD4VIL-3">
          <mxGeometry relative="1" as="geometry" />
        </mxCell>
        <mxCell id="XYf41SD09D1qtcmD4VIL-5" value="增加配置" style="edgeLabel;html=1;align=center;verticalAlign=middle;resizable=0;points=[];" vertex="1" connectable="0" parent="XYf41SD09D1qtcmD4VIL-4">
          <mxGeometry x="-0.04" y="1" relative="1" as="geometry">
            <mxPoint as="offset" />
          </mxGeometry>
        </mxCell>
        <mxCell id="XYf41SD09D1qtcmD4VIL-2" value="" style="verticalLabelPosition=bottom;verticalAlign=top;html=1;shape=mxgraph.basic.smiley" vertex="1" parent="1">
          <mxGeometry x="60" y="180" width="60" height="60" as="geometry" />
        </mxCell>
        <mxCell id="XYf41SD09D1qtcmD4VIL-3" value="配置平台" style="rounded=1;whiteSpace=wrap;html=1;" vertex="1" parent="1">
          <mxGeometry x="180" y="195" width="100" height="30" as="geometry" />
        </mxCell>
        <mxCell id="XYf41SD09D1qtcmD4VIL-12" style="edgeStyle=orthogonalEdgeStyle;rounded=0;orthogonalLoop=1;jettySize=auto;html=1;entryX=0.5;entryY=0;entryDx=0;entryDy=0;" edge="1" parent="1" source="XYf41SD09D1qtcmD4VIL-6" target="XYf41SD09D1qtcmD4VIL-9">
          <mxGeometry relative="1" as="geometry" />
        </mxCell>
        <mxCell id="XYf41SD09D1qtcmD4VIL-13" value="跳转" style="edgeLabel;html=1;align=center;verticalAlign=middle;resizable=0;points=[];" vertex="1" connectable="0" parent="XYf41SD09D1qtcmD4VIL-12">
          <mxGeometry x="-0.0333" y="-2" relative="1" as="geometry">
            <mxPoint as="offset" />
          </mxGeometry>
        </mxCell>
        <mxCell id="XYf41SD09D1qtcmD4VIL-6" value="app" style="rounded=1;whiteSpace=wrap;html=1;fillColor=#60a917;fontColor=#ffffff;strokeColor=#2D7600;" vertex="1" parent="1">
          <mxGeometry x="50" y="270" width="100" height="30" as="geometry" />
        </mxCell>
        <mxCell id="XYf41SD09D1qtcmD4VIL-15" style="edgeStyle=orthogonalEdgeStyle;rounded=0;orthogonalLoop=1;jettySize=auto;html=1;" edge="1" parent="1" source="XYf41SD09D1qtcmD4VIL-9" target="XYf41SD09D1qtcmD4VIL-14">
          <mxGeometry relative="1" as="geometry" />
        </mxCell>
        <mxCell id="XYf41SD09D1qtcmD4VIL-16" value="查询必要参数" style="edgeLabel;html=1;align=center;verticalAlign=middle;resizable=0;points=[];" vertex="1" connectable="0" parent="XYf41SD09D1qtcmD4VIL-15">
          <mxGeometry x="-0.12" y="-2" relative="1" as="geometry">
            <mxPoint as="offset" />
          </mxGeometry>
        </mxCell>
        <mxCell id="XYf41SD09D1qtcmD4VIL-9" value="H5" style="rounded=1;whiteSpace=wrap;html=1;fillColor=#60a917;fontColor=#ffffff;strokeColor=#2D7600;" vertex="1" parent="1">
          <mxGeometry x="50" y="350" width="100" height="30" as="geometry" />
        </mxCell>
        <mxCell id="XYf41SD09D1qtcmD4VIL-10" style="edgeStyle=orthogonalEdgeStyle;rounded=0;orthogonalLoop=1;jettySize=auto;html=1;entryX=0.38;entryY=0.967;entryDx=0;entryDy=0;entryPerimeter=0;" edge="1" parent="1" source="XYf41SD09D1qtcmD4VIL-6" target="XYf41SD09D1qtcmD4VIL-3">
          <mxGeometry relative="1" as="geometry" />
        </mxCell>
        <mxCell id="XYf41SD09D1qtcmD4VIL-11" value="读取配置" style="edgeLabel;html=1;align=center;verticalAlign=middle;resizable=0;points=[];" vertex="1" connectable="0" parent="XYf41SD09D1qtcmD4VIL-10">
          <mxGeometry x="0.1825" y="-1" relative="1" as="geometry">
            <mxPoint as="offset" />
          </mxGeometry>
        </mxCell>
        <mxCell id="XYf41SD09D1qtcmD4VIL-14" value="后端" style="rounded=1;whiteSpace=wrap;html=1;fillColor=#60a917;fontColor=#ffffff;strokeColor=#2D7600;" vertex="1" parent="1">
          <mxGeometry x="50" y="430" width="100" height="30" as="geometry" />
        </mxCell>
      </root>
    </mxGraphModel>
  </diagram>
</mxfile>
